# xmcd
#
# Track frame offsets:
#	150
#	5545
#	26413
#	44457
#	65433
#	85484
#	107234
#	127281
#	147551
#	165118
#
# Disc length: 2559 seconds
#
# Revision: 1
# Processed by: cddbd v1.5.2PL0 Copyright (c) Steve Scherf et al.
# Submitted via: audiograbber 1.83.01
#
DISCID=8809fd0a
DTITLE=No Quarter Given - The Embodiment Begins
DYEAR=2008
DGENRE=Metal
TTITLE0=Embodiment Begins
TTITLE1=Program Divinity
TTITLE2=Dystopia
TTITLE3=Rusted Knives
TTITLE4=Dead In Your Wake
TTITLE5=Shifting Ground
TTITLE6=Ascencion Level
TTITLE7=The Sedition
TTITLE8=Fallen Paradigm
TTITLE9=Endgame
EXTD=
EXTT0=
EXTT1=
EXTT2=
EXTT3=
EXTT4=
EXTT5=
EXTT6=
EXTT7=
EXTT8=
EXTT9=
PLAYORDER=
